subject20_rfs_trial11_ground_reaction
version=1
nRows=58
nColumns=19
inDegrees=no
endheader
time	ground_force_r_vx	ground_force_r_vy	ground_force_r_vz	ground_force_r_px	ground_force_r_py	ground_force_r_pz	ground_torque_r_x	ground_torque_r_y	ground_torque_r_z	ground_force_l_vx	ground_force_l_vy	ground_force_l_vz	ground_force_l_px	ground_force_l_py	ground_force_l_pz	ground_torque_l_x	ground_torque_l_y	ground_torque_l_z
0.000000	0.000000	0.000000	0.000000	8759.369672	0.000000	5469.878415	0.000000	0.000000	0.000000	0.000000	0.000000	0.000000	209727.749781	0.000000	159357.034369	0.000000	0.000000	0.000000
0.000500	0.000000	0.000000	0.000000	8706.775433	0.000000	5436.913992	0.000000	0.000000	0.000000	0.000000	0.000000	0.000000	209232.830747	0.000000	158980.282540	0.000000	0.000000	0.000000
0.001000	0.000000	0.000000	0.000000	8654.392159	0.000000	5404.082281	0.000000	0.000000	0.000000	0.000000	0.000000	0.000000	208738.690938	0.000000	158604.124992	0.000000	0.000000	0.000000
0.001500	0.000000	0.000000	0.000000	8602.219424	0.000000	5371.383015	0.000000	0.000000	0.000000	0.000000	0.000000	0.000000	208245.329738	0.000000	158228.561256	0.000000	0.000000	0.000000
0.002000	0.000000	0.000000	0.000000	8550.256806	0.000000	5338.815925	0.000000	0.000000	0.000000	0.000000	0.000000	0.000000	207752.746535	0.000000	157853.590865	0.000000	0.000000	0.000000
0.002500	0.000000	0.000000	0.000000	8498.503881	0.000000	5306.380743	0.000000	0.000000	0.000000	0.000000	0.000000	0.000000	207260.940715	0.000000	157479.213347	0.000000	0.000000	0.000000
0.003000	0.000000	0.000000	0.000000	8446.960224	0.000000	5274.077203	0.000000	0.000000	0.000000	0.000000	0.000000	0.000000	206769.911663	0.000000	157105.428235	0.000000	0.000000	0.000000
0.003500	0.000000	0.000000	0.000000	8395.625411	0.000000	5241.905036	0.000000	0.000000	0.000000	0.000000	0.000000	0.000000	206279.658765	0.000000	156732.235060	0.000000	0.000000	0.000000
0.004000	0.000000	0.000000	0.000000	8344.499020	0.000000	5209.863975	0.000000	0.000000	0.000000	0.000000	0.000000	0.000000	205790.181409	0.000000	156359.633352	0.000000	0.000000	0.000000
0.004500	0.000000	0.000000	0.000000	8293.580624	0.000000	5177.953752	0.000000	0.000000	0.000000	0.000000	0.000000	0.000000	205301.478979	0.000000	155987.622642	0.000000	0.000000	0.000000
0.005000	0.000000	0.000000	0.000000	8242.869802	0.000000	5146.174099	0.000000	0.000000	0.000000	0.000000	0.000000	0.000000	204813.550863	0.000000	155616.202461	0.000000	0.000000	0.000000
0.005500	0.000000	0.000000	0.000000	8192.366128	0.000000	5114.524749	0.000000	0.000000	0.000000	0.000000	0.000000	0.000000	204326.396445	0.000000	155245.372340	0.000000	0.000000	0.000000
0.006000	0.000000	0.000000	0.000000	8142.069178	0.000000	5083.005433	0.000000	0.000000	0.000000	0.000000	0.000000	0.000000	203840.015112	0.000000	154875.131810	0.000000	0.000000	0.000000
0.006500	0.000000	0.000000	0.000000	8091.978530	0.000000	5051.615885	0.000000	0.000000	0.000000	0.000000	0.000000	0.000000	203354.406251	0.000000	154505.480402	0.000000	0.000000	0.000000
0.007000	0.000000	0.000000	0.000000	8042.093758	0.000000	5020.355836	0.000000	0.000000	0.000000	0.000000	0.000000	0.000000	202869.569247	0.000000	154136.417646	0.000000	0.000000	0.000000
0.007500	0.000000	0.000000	0.000000	7992.414439	0.000000	4989.225019	0.000000	0.000000	0.000000	0.000000	0.000000	0.000000	202385.503487	0.000000	153767.943075	0.000000	0.000000	0.000000
0.008000	0.000000	0.000000	0.000000	7942.940149	0.000000	4958.223166	0.000000	0.000000	0.000000	0.000000	0.000000	0.000000	201902.208356	0.000000	153400.056218	0.000000	0.000000	0.000000
0.008500	0.000000	0.000000	0.000000	7893.670464	0.000000	4927.350009	0.000000	0.000000	0.000000	0.000000	0.000000	0.000000	201419.683240	0.000000	153032.756606	0.000000	0.000000	0.000000
0.009000	0.000000	0.000000	0.000000	7844.604960	0.000000	4896.605281	0.000000	0.000000	0.000000	0.000000	0.000000	0.000000	200937.927527	0.000000	152666.043771	0.000000	0.000000	0.000000
0.009500	0.000000	0.000000	0.000000	7795.743212	0.000000	4865.988714	0.000000	0.000000	0.000000	0.000000	0.000000	0.000000	200456.940601	0.000000	152299.917244	0.000000	0.000000	0.000000
0.010000	0.000000	0.000000	0.000000	7747.084798	0.000000	4835.500041	0.000000	0.000000	0.000000	0.000000	0.000000	0.000000	199976.721849	0.000000	151934.376555	0.000000	0.000000	0.000000
0.010500	0.000000	0.000000	0.000000	7698.629293	0.000000	4805.138993	0.000000	0.000000	0.000000	0.000000	0.000000	0.000000	199497.270657	0.000000	151569.421235	0.000000	0.000000	0.000000
0.011000	0.000000	0.000000	0.000000	7650.376273	0.000000	4774.905303	0.000000	0.000000	0.000000	0.000000	0.000000	0.000000	199018.586411	0.000000	151205.050815	0.000000	0.000000	0.000000
0.011500	0.000000	0.000000	0.000000	7602.325313	0.000000	4744.798703	0.000000	0.000000	0.000000	0.000000	0.000000	0.000000	198540.668497	0.000000	150841.264827	0.000000	0.000000	0.000000
0.012000	0.000000	0.000000	0.000000	7554.475991	0.000000	4714.818925	0.000000	0.000000	0.000000	0.000000	0.000000	0.000000	198063.516302	0.000000	150478.062800	0.000000	0.000000	0.000000
0.012500	0.000000	0.000000	0.000000	7506.827883	0.000000	4684.965702	0.000000	0.000000	0.000000	0.000000	0.000000	0.000000	197587.129212	0.000000	150115.444266	0.000000	0.000000	0.000000
0.013000	0.000000	0.000000	0.000000	7459.380563	0.000000	4655.238767	0.000000	0.000000	0.000000	0.000000	0.000000	0.000000	197111.506611	0.000000	149753.408757	0.000000	0.000000	0.000000
0.013500	0.000000	0.000000	0.000000	7412.133609	0.000000	4625.637851	0.000000	0.000000	0.000000	0.000000	0.000000	0.000000	196636.647888	0.000000	149391.955802	0.000000	0.000000	0.000000
0.014000	0.000000	0.000000	0.000000	7365.086596	0.000000	4596.162686	0.000000	0.000000	0.000000	0.000000	0.000000	0.000000	196162.552427	0.000000	149031.084932	0.000000	0.000000	0.000000
0.014500	0.000000	0.000000	0.000000	7318.239100	0.000000	4566.813005	0.000000	0.000000	0.000000	0.000000	0.000000	0.000000	195689.219614	0.000000	148670.795680	0.000000	0.000000	0.000000
0.015000	0.000000	0.000000	0.000000	7271.590697	0.000000	4537.588541	0.000000	0.000000	0.000000	0.000000	0.000000	0.000000	195216.648837	0.000000	148311.087575	0.000000	0.000000	0.000000
0.015500	0.000000	0.000000	0.000000	7225.140964	0.000000	4508.489026	0.000000	0.000000	0.000000	0.000000	0.000000	0.000000	194744.839481	0.000000	147951.960148	0.000000	0.000000	0.000000
0.016000	0.000000	0.000000	0.000000	7178.889477	0.000000	4479.514191	0.000000	0.000000	0.000000	0.000000	0.000000	0.000000	194273.790931	0.000000	147593.412931	0.000000	0.000000	0.000000
0.016500	0.000000	0.000000	0.000000	7132.835811	0.000000	4450.663769	0.000000	0.000000	0.000000	0.000000	0.000000	0.000000	193803.502576	0.000000	147235.445454	0.000000	0.000000	0.000000
0.017000	0.000000	0.000000	0.000000	7086.979542	0.000000	4421.937493	0.000000	0.000000	0.000000	0.000000	0.000000	0.000000	193333.973799	0.000000	146878.057249	0.000000	0.000000	0.000000
0.017500	0.000000	0.000000	0.000000	7041.320247	0.000000	4393.335095	0.000000	0.000000	0.000000	0.000000	0.000000	0.000000	192865.203988	0.000000	146521.247845	0.000000	0.000000	0.000000
0.018000	0.000000	0.000000	0.000000	6995.857501	0.000000	4364.856307	0.000000	0.000000	0.000000	0.000000	0.000000	0.000000	192397.192528	0.000000	146165.016775	0.000000	0.000000	0.000000
0.018500	0.000000	0.000000	0.000000	6950.590881	0.000000	4336.500861	0.000000	0.000000	0.000000	0.000000	0.000000	0.000000	191929.938806	0.000000	145809.363569	0.000000	0.000000	0.000000
0.019000	0.000000	0.000000	0.000000	6905.519963	0.000000	4308.268490	0.000000	0.000000	0.000000	0.000000	0.000000	0.000000	191463.442207	0.000000	145454.287757	0.000000	0.000000	0.000000
0.019500	0.000000	0.000000	0.000000	6860.644322	0.000000	4280.158926	0.000000	0.000000	0.000000	0.000000	0.000000	0.000000	190997.702118	0.000000	145099.788872	0.000000	0.000000	0.000000
0.020000	0.000000	0.000000	0.000000	6815.963535	0.000000	4252.171902	0.000000	0.000000	0.000000	0.000000	0.000000	0.000000	190532.717925	0.000000	144745.866443	0.000000	0.000000	0.000000
0.020500	0.000000	0.000000	0.000000	6771.477178	0.000000	4224.307149	0.000000	0.000000	0.000000	0.000000	0.000000	0.000000	190068.489014	0.000000	144392.520002	0.000000	0.000000	0.000000
0.021000	0.000000	0.000000	0.000000	6727.184827	0.000000	4196.564399	0.000000	0.000000	0.000000	0.000000	0.000000	0.000000	189605.014772	0.000000	144039.749080	0.000000	0.000000	0.000000
0.021500	0.000000	0.000000	0.000000	6683.086057	0.000000	4168.943386	0.000000	0.000000	0.000000	0.000000	0.000000	0.000000	189142.294583	0.000000	143687.553207	0.000000	0.000000	0.000000
0.022000	0.000000	0.000000	0.000000	6639.180446	0.000000	4141.443842	0.000000	0.000000	0.000000	0.000000	0.000000	0.000000	188680.327834	0.000000	143335.931915	0.000000	0.000000	0.000000
0.022500	0.000000	0.000000	0.000000	6595.467568	0.000000	4114.065498	0.000000	0.000000	0.000000	0.000000	0.000000	0.000000	188219.113913	0.000000	142984.884734	0.000000	0.000000	0.000000
0.023000	0.000000	0.000000	0.000000	6551.947000	0.000000	4086.808088	0.000000	0.000000	0.000000	0.000000	0.000000	0.000000	187758.652203	0.000000	142634.411195	0.000000	0.000000	0.000000
0.023500	0.000000	0.000000	0.000000	6508.618318	0.000000	4059.671343	0.000000	0.000000	0.000000	0.000000	0.000000	0.000000	187298.942092	0.000000	142284.510830	0.000000	0.000000	0.000000
0.024000	0.000000	0.000000	0.000000	6465.481098	0.000000	4032.654995	0.000000	0.000000	0.000000	0.000000	0.000000	0.000000	186839.982966	0.000000	141935.183169	0.000000	0.000000	0.000000
0.024500	0.000000	0.000000	0.000000	6422.534916	0.000000	4005.758778	0.000000	0.000000	0.000000	0.000000	0.000000	0.000000	186381.774210	0.000000	141586.427743	0.000000	0.000000	0.000000
0.025000	0.000000	0.000000	0.000000	6379.779348	0.000000	3978.982423	0.000000	0.000000	0.000000	0.000000	0.000000	0.000000	185924.315211	0.000000	141238.244083	0.000000	0.000000	0.000000
0.025500	0.000000	0.000000	0.000000	6337.213970	0.000000	3952.325663	0.000000	0.000000	0.000000	0.000000	0.000000	0.000000	185467.605356	0.000000	140890.631720	0.000000	0.000000	0.000000
0.026000	0.000000	0.000000	0.000000	6294.838359	0.000000	3925.788229	0.000000	0.000000	0.000000	0.000000	0.000000	0.000000	185011.644029	0.000000	140543.590184	0.000000	0.000000	0.000000
0.026500	0.000000	0.000000	0.000000	6252.652089	0.000000	3899.369855	0.000000	0.000000	0.000000	0.000000	0.000000	0.000000	184556.430617	0.000000	140197.119008	0.000000	0.000000	0.000000
0.027000	0.000000	0.000000	0.000000	6210.654738	0.000000	3873.070272	0.000000	0.000000	0.000000	0.000000	0.000000	0.000000	184101.964507	0.000000	139851.217721	0.000000	0.000000	0.000000
0.027500	0.000000	0.000000	0.000000	6168.845881	0.000000	3846.889213	0.000000	0.000000	0.000000	0.000000	0.000000	0.000000	183648.245084	0.000000	139505.885855	0.000000	0.000000	0.000000
0.028000	0.000000	0.000000	0.000000	6127.225094	0.000000	3820.826410	0.000000	0.000000	0.000000	0.000000	0.000000	0.000000	183195.271734	0.000000	139161.122940	0.000000	0.000000	0.000000
0.028500	0.000000	0.000000	0.000000	6085.791954	0.000000	3794.881596	0.000000	0.000000	0.000000	0.000000	0.000000	0.000000	182743.043844	0.000000	138816.928508	0.000000	0.000000	0.000000
